<svg version="1.2" xmlns="http://www.w3.org/2000/svg" viewBox="0 0 800 800" width="800" height="800"><style></style><path  d="m572.1 395.7c-7.8 0-14.1-6.3-14.1-14v-114.4c0-7.7 6.3-14 14.1-14 7.8 0 14.1 6.3 14.1 14v114.4c0 7.7-6.3 14-14.1 14z"/><path  d="m653.7 518.2c-7.8 0-14.1-6.3-14.1-14.1v-359.2c0-7.8 6.3-14.1 14.1-14.1 7.9 0 14 6.3 14 14.1v359.2c0 7.8-6.1 14.1-14 14.1z"/><path  d="m735.4 640.6c-7.7 0-14-6.3-14-14v-604.3c0-7.8 6.3-14.1 14-14.1 7.8 0 14.1 6.3 14.1 14.1v604.3c0 7.7-6.3 14-14.1 14z"/><path  d="m227.7 395.7c7.8 0 14.1-6.3 14.1-14v-114.4c0-7.7-6.3-14-14.1-14-7.8 0-14.1 6.3-14.1 14v114.4c0 7.7 6.3 14 14.1 14z"/><path  d="m146.1 518.2c7.8 0 14.1-6.3 14.1-14.1v-359.2c0-7.8-6.3-14.1-14.1-14.1-7.7 0-14 6.3-14 14.1v359.2c0 7.8 6.3 14.1 14 14.1z"/><path  d="m64.4 640.6c7.7 0 14-6.3 14-14v-604.3c0-7.8-6.3-14.1-14-14.1-7.8 0-14.1 6.3-14.1 14.1v604.3c0 7.7 6.3 14 14.1 14z"/><path  d="m572.3 427.6c-7.8 0-14.1 6.3-14.1 14v45.7c0 86.1-70.1 156.2-156.2 156.2-86.3 0-156.4-70.1-156.4-156.2v-45.7c0-7.7-6.3-14-14-14-7.8 0-14.1 6.3-14.1 14v45.7c0 97 75.3 176.6 170.4 183.9v91.4h-64.1c-7.7 0-14 6.3-14 14 0 7.8 6.3 14.1 14 14.1h156.4c7.7 0 14-6.3 14-14.1 0-7.7-6.3-14-14-14h-64.1v-91.4c95.1-7.3 170.2-86.9 170.2-183.9v-45.7c0-7.7-6.1-14-14-14z"/><path fill-rule="evenodd" d="m511 469.4c0 59.6-48.6 108.2-108.2 108.2-59.6 0-108.1-48.6-108.1-108.2v-204c0-59.6 48.5-108.1 108.1-108.1 59.6 0 108.2 48.5 108.2 108.1zm-23.7-63.5v-71.7c0-14.9-12-27-26.8-27h-113.7c-14.9 0-27 12.1-27 27v71.7c0 14.8 12.1 27 27 27h113.7c14.8 0 26.8-12.2 26.8-27zm-26.8-90.8c10.5 0 19 8.6 19 19.1v71.7c0 10.5-8.5 19-19 19h-113.7c-10.5 0-19.1-8.5-19.1-19v-71.7c0-10.5 8.6-19.1 19.1-19.1zm-120.2 18.7q19 18.6 38.1 37.2-18.7 17.8-37.5 35.5c-3.9 3.7 1.9 9.4 5.7 5.8q18.9-17.7 37.6-35.7 8.2 8.1 16.5 16c0.8 1 1.9 1.3 2.9 1.3 1 0 1.9-0.3 2.7-1.3q8.4-8 16.7-16.1 18.9 17.9 37.8 35.8c3.7 3.6 9.5-2.1 5.8-5.8q-18.9-17.7-37.8-35.7 19.1-18.4 38-37c3.7-3.5-2-9.3-5.9-5.6q-28.7 27.9-57.3 55.9-28.8-28-57.5-55.9c-3.7-3.7-9.6 2.1-5.8 5.6z"/></svg>